<svg xmlns="http://www.w3.org/2000/svg" width="500" height="500" viewBox="0 0 500 500" version="1.1"><path d="M 216.250 260.748 C 225.463 260.913, 240.537 260.913, 249.750 260.748 C 258.962 260.583, 251.425 260.448, 233 260.448 C 214.575 260.448, 207.037 260.583, 216.250 260.748 M 155 276.208 C 155 285.734, 158.772 306.038, 162.763 318 C 168.305 334.607, 177.767 350.819, 188.343 361.827 C 194.297 368.024, 195.456 368.480, 197.464 365.414 C 199.087 362.938, 199.040 362.753, 195.733 358.684 C 189.228 350.679, 181.713 337.223, 177.573 326.169 C 173.033 314.045, 168 288.435, 168 277.455 C 168 272.379, 167.927 272.249, 164.750 271.695 C 162.963 271.384, 160.037 270.819, 158.250 270.439 L 155 269.750 155 276.208 M 290.473 299.030 C 288.354 301.371, 289.235 305.499, 292.259 307.396 C 294.603 308.868, 299.381 306.257, 299.813 303.268 C 300.633 297.591, 294.353 294.742, 290.473 299.030 M 206.500 389.162 C 212.829 390.001, 256.517 389.976, 260.422 389.132 C 262.029 388.784, 249.429 388.500, 232.422 388.500 C 215.415 388.500, 203.750 388.798, 206.500 389.162" stroke="none" fill="#7ea7c4" fill-rule="evenodd"/><path d="M 192.500 231.054 C 164.092 233.180, 143.601 237.428, 138.250 242.300 C 136.099 244.259, 136 245.040, 136 260.068 C 136 278.377, 137.297 292.721, 140.145 305.908 C 144.900 327.920, 155.809 351.924, 169.121 369.661 C 173.454 375.435, 177 380.575, 177 381.084 C 177 381.592, 176.100 383.686, 175 385.739 C 170.224 394.650, 174.005 398.877, 189.638 402.101 C 197.325 403.687, 204.952 404.259, 224.220 404.697 C 259.941 405.509, 280.526 403.307, 287.342 397.945 C 290.601 395.382, 290.866 390.503, 288.079 384.366 L 286.201 380.231 292.537 371.789 C 298.737 363.528, 298.999 363.319, 304.687 362.081 C 317.189 359.360, 342.763 346.773, 356.114 336.770 C 361.793 332.515, 371.452 322.762, 377.160 315.519 C 380.673 311.062, 384.917 301.217, 386.099 294.785 C 391.005 268.080, 367.933 247.055, 342.274 254.848 C 336.110 256.720, 334.806 256.817, 330.906 255.692 L 326.500 254.420 325.989 248.960 C 325.709 245.957, 325.115 242.931, 324.671 242.235 C 322.577 238.955, 307.112 234.883, 287.500 232.448 C 272.120 230.538, 211.311 229.646, 192.500 231.054 M 185.412 239.065 C 167.658 240.200, 148 243.881, 148 246.072 C 148 248.865, 164.123 251.637, 191.862 253.613 C 216.531 255.371, 260.389 255.069, 282 252.993 C 295.182 251.727, 311.818 248.582, 313.328 247.072 C 315.926 244.474, 298.554 240.620, 277 239.012 C 261.673 237.869, 203.618 237.902, 185.412 239.065 M 314.676 253.082 C 297.225 258.722, 275.454 260.305, 223.500 259.713 C 178.667 259.202, 168.995 258.449, 150.318 254.013 C 145.656 252.906, 141.727 252, 141.585 252 C 140.976 252, 142.073 277.413, 143.096 287 C 144.913 304.029, 152.292 329.830, 159.255 343.500 C 166.732 358.180, 181.913 378.500, 186.500 379.969 C 196.502 383.173, 238.193 384.973, 258.500 383.078 C 279.141 381.152, 277.311 382.032, 286.794 369.479 C 302.811 348.277, 314.359 319.576, 318.564 290.517 C 319.959 280.882, 321.740 250.894, 320.905 251.100 C 320.682 251.155, 317.879 252.047, 314.676 253.082 M 346.500 259.042 C 340.039 260.321, 337.644 261.550, 331.250 266.872 C 325.493 271.663, 325.182 272.152, 324.850 276.954 C 324.657 279.730, 324.687 282.001, 324.915 282.001 C 325.143 282, 328.151 279.291, 331.598 275.981 C 339.113 268.765, 344.611 266.052, 351.782 266.022 C 358.873 265.992, 362.784 267.811, 367.741 273.443 C 375.966 282.787, 375.746 294.052, 367.081 307.221 C 360.923 316.582, 358.245 319.407, 348.500 326.829 C 338.487 334.455, 326.956 341.054, 316.317 345.246 C 310.534 347.525, 307.785 349.176, 307.037 350.817 C 304.175 357.100, 309.790 356.336, 326.516 348.167 C 349.143 337.117, 364.236 324.985, 373.836 310.132 C 379.103 301.983, 381.093 295.763, 381.174 287.194 C 381.230 281.161, 380.797 279.400, 377.940 274.038 C 376.125 270.634, 372.902 266.360, 370.778 264.542 C 365.307 259.859, 354.613 257.436, 346.500 259.042 M 288.229 269.669 C 286.602 270.324, 284 275.329, 284 277.804 C 284 278.851, 285.104 280.899, 286.452 282.354 C 291.538 287.841, 301 284.567, 301 277.320 C 301 272.561, 297.605 268.984, 293.177 269.079 C 291.155 269.122, 288.928 269.388, 288.229 269.669 M 344.242 272.494 C 339.075 274.740, 334.364 278.769, 329.183 285.372 C 324.652 291.149, 324.251 292.160, 322.206 303 C 321.013 309.325, 318.194 320.053, 315.942 326.841 C 312.042 338.600, 311.593 341.807, 314.217 339.183 C 314.868 338.532, 316.378 338, 317.573 338 C 327.983 338, 358.989 313.898, 365.377 300.840 C 371.302 288.730, 367.880 275.929, 357.685 272.067 C 353.841 270.610, 348.161 270.791, 344.242 272.494 M 178.975 387.565 C 178.439 388.976, 178 390.727, 178 391.457 C 178 395.901, 201.696 399.235, 233.500 399.264 C 259.018 399.287, 274.099 397.935, 280.655 395.035 C 285.456 392.911, 285.708 392.269, 283.448 387.899 C 282.383 385.840, 281.363 385.062, 280.198 385.419 C 272.622 387.740, 260.876 388.496, 233 388.457 C 208.861 388.424, 200.469 388.059, 192.761 386.707 C 180.266 384.517, 180.131 384.525, 178.975 387.565" stroke="none" fill="#d9f0f7" fill-rule="evenodd"/></svg>