<svg xmlns="http://www.w3.org/2000/svg" width="500" height="500" viewBox="0 0 500 500" version="1.1"><path d="M 203 251.054 C 198.875 251.484, 192.125 252.122, 188 252.472 C 169.236 254.064, 155.703 257.548, 150.155 262.216 L 147 264.871 147 281.886 C 147 291.245, 147.410 301.061, 147.911 303.701 C 148.413 306.340, 149.357 311.875, 150.011 316 C 151.871 327.740, 155.114 339.667, 158.617 347.651 C 159.378 349.384, 160 351.348, 160 352.016 C 160 353.329, 164.377 361.950, 167.099 366 C 168.024 367.375, 168.736 368.725, 168.683 369 C 168.512 369.879, 177.214 382.345, 181.162 386.876 C 185.207 391.519, 185.423 393.813, 182.273 398.679 C 181.497 399.878, 181.006 402.353, 181.181 404.179 C 181.460 407.086, 182.160 407.822, 186.798 410.083 C 189.712 411.504, 192.637 412.678, 193.298 412.691 C 193.959 412.704, 198.100 413.400, 202.500 414.237 C 206.900 415.075, 211.625 415.761, 213 415.763 C 214.375 415.765, 223.150 415.855, 232.500 415.963 C 265.780 416.350, 286.230 412.688, 289.069 405.833 C 290.152 403.219, 290.033 402.247, 288.157 398.387 C 285.962 393.869, 285.397 390.435, 286.750 389.833 C 287.770 389.380, 292.629 382.896, 298.029 374.782 C 301.679 369.298, 302.994 368.058, 305.191 368.032 C 306.671 368.014, 308.160 367.550, 308.500 367 C 308.840 366.450, 310.126 366, 311.359 366 C 312.592 366, 314.028 365.621, 314.550 365.157 C 315.072 364.693, 318.200 363.512, 321.500 362.533 C 329.060 360.290, 343.559 353.153, 351.453 347.790 C 358.018 343.330, 370.392 331.824, 372.308 328.399 C 379.931 314.773, 381.486 308.977, 380.086 299.401 C 378.488 288.470, 372.516 280.380, 362.367 275.399 C 355.652 272.103, 348.270 271.423, 339.366 273.280 C 328.535 275.537, 323 273.717, 323 267.897 C 323 262.082, 317.109 258.341, 303.539 255.539 C 285.647 251.845, 235.316 248.624, 230 250.834 C 227.945 251.688, 228.836 251.885, 235 251.939 C 245.946 252.036, 285.222 254.803, 294.308 256.117 C 300.730 257.046, 302.392 257.669, 303.673 259.624 C 304.529 260.931, 306.191 262.016, 307.365 262.035 C 308.539 262.055, 310.625 262.714, 312 263.500 C 314.995 265.212, 313.777 265.391, 308.993 263.942 C 299.104 260.946, 273.250 258.187, 250.500 257.700 C 233.924 257.345, 219.847 257.979, 222 258.983 C 222.275 259.111, 230.600 259.365, 240.500 259.548 C 261.729 259.939, 272.074 260.579, 288.944 262.541 C 301.746 264.030, 303.487 264.361, 308.333 266.223 L 311.165 267.311 308.286 268.522 C 306.703 269.188, 301.378 270.261, 296.454 270.908 C 291.529 271.555, 284.575 272.496, 281 272.999 C 277.425 273.502, 258.975 274.183, 240 274.511 C 213.011 274.977, 201.888 274.773, 188.907 273.570 C 173.287 272.122, 159 269.034, 159 267.107 C 159 265.433, 183.657 261.868, 205.265 260.416 C 216.735 259.645, 219.279 258, 209.001 258 C 198.971 258, 166.521 261.842, 161.297 263.648 C 159.682 264.206, 159.693 264.119, 161.403 262.786 C 162.449 261.971, 163.005 260.818, 162.638 260.224 C 162.271 259.630, 162.765 258.918, 163.735 258.641 C 170.659 256.667, 188.971 254.530, 208 253.477 C 220.445 252.788, 224.219 252.163, 223.450 250.919 C 222.796 249.861, 213.866 249.920, 203 251.054 M 154.293 261.567 C 148.908 263.924, 148.630 265.357, 149.330 287.062 C 149.973 307.003, 150.291 309.417, 154.719 328 C 160.039 350.332, 170.437 371.645, 183.398 386.786 C 188.273 392.482, 188.289 392.674, 184.471 400.057 C 183.585 401.770, 183.181 403.996, 183.548 405.150 C 185.329 410.763, 205.264 414.063, 236.620 413.934 C 263.745 413.823, 280.869 411.351, 285.656 406.853 C 288.566 404.120, 288.562 403.909, 285.500 397.813 C 282.431 391.703, 282.431 391.744, 285.484 388.302 C 289.096 384.229, 289.468 383.750, 291.557 380.474 C 292.600 378.838, 293.693 377.275, 293.986 377 C 297.266 373.920, 308.180 353.178, 310.824 345 C 317.380 324.721, 319.923 309.457, 320.688 285.797 C 321.219 269.354, 321.091 266.787, 319.623 264.547 C 317.507 261.318, 316 261.289, 316 264.477 C 316 270.717, 304.108 273.390, 265 275.939 C 247.528 277.078, 207.107 276.552, 190.500 274.969 C 174.667 273.460, 157.848 270.148, 154.962 267.971 L 152.509 266.121 155.442 263.061 C 157.055 261.377, 158.177 260.037, 157.937 260.082 C 157.697 260.126, 156.057 260.795, 154.293 261.567 M 152.769 272.565 C 151.733 273.600, 152.854 296.743, 154.564 309.651 C 155.917 319.859, 160.221 337.523, 163.082 344.610 C 163.724 346.200, 164.570 348.400, 164.963 349.500 C 168.650 359.826, 184.453 384.874, 190.596 390.128 C 193.248 392.396, 196.810 392.945, 218.500 394.427 C 234.239 395.502, 240.332 395.494, 254 394.382 C 275.119 392.664, 276.919 392.305, 280.346 389.134 C 287.010 382.966, 296.632 368.445, 302.433 355.800 C 306.198 347.592, 311.478 332.298, 312.375 327 C 312.700 325.075, 313.644 319.900, 314.471 315.500 C 315.299 311.100, 316.279 299.451, 316.651 289.613 L 317.326 271.725 314.413 272.302 C 307.545 273.662, 305.386 274.200, 303.500 275.023 C 302.400 275.503, 299.250 276.125, 296.500 276.407 C 293.750 276.688, 286.100 277.487, 279.500 278.182 C 263.652 279.852, 204.002 279.884, 190 278.229 C 173.915 276.329, 166.229 275.030, 155.988 272.483 C 154.606 272.139, 153.158 272.176, 152.769 272.565 M 342.500 274.480 C 331.579 278.001, 330.970 278.092, 328.742 276.532 C 325.368 274.169, 323 274.568, 323 277.500 C 323 279.308, 323.537 280, 324.941 280 C 326.009 280, 327.160 279.550, 327.500 279 C 327.840 278.450, 328.616 278, 329.226 278 C 329.835 278, 328.571 279.572, 326.417 281.494 C 322.470 285.014, 323.997 285.328, 329 282.024 C 335.679 277.613, 352.438 275.872, 358.599 278.949 C 366.876 283.084, 373.068 290.300, 374.517 297.500 C 374.959 299.700, 375.466 302.175, 375.642 303 C 376.268 305.927, 373.653 315.583, 370.689 321.288 C 362.931 336.216, 346.203 348.177, 318.500 358.603 C 313.550 360.466, 308.768 361.992, 307.872 361.995 C 305.804 362.001, 303.537 364.596, 304.877 365.424 C 305.412 365.755, 306.896 365.617, 308.175 365.117 C 309.454 364.617, 312.525 363.638, 315 362.941 C 317.475 362.244, 321.525 360.698, 324 359.504 C 326.475 358.310, 328.858 357.301, 329.296 357.262 C 331.130 357.095, 342.028 351.277, 349 346.741 C 361.096 338.872, 372.073 327.492, 374.907 319.884 C 375.600 318.023, 376.614 315.663, 377.160 314.640 C 377.707 313.617, 378.166 309.079, 378.181 304.555 C 378.203 298.033, 377.751 295.415, 376.001 291.915 C 373.395 286.704, 365.255 278, 362.988 278 C 362.114 278, 360.972 277.611, 360.450 277.136 C 358.243 275.129, 346.073 273.328, 342.500 274.480 M 154.645 277.278 C 154.312 278.604, 154.232 282.347, 154.467 285.595 C 155.889 305.243, 156.297 309.314, 157.616 317 C 158.419 321.675, 159.511 326.850, 160.044 328.500 C 160.577 330.150, 162.201 335.325, 163.654 340 C 168.833 356.664, 178.228 373.640, 188.355 384.634 C 193.074 389.757, 194.383 390.337, 204 391.564 C 205.375 391.739, 208.328 392.149, 210.563 392.475 C 215.748 393.230, 255.771 393.326, 259.037 392.591 C 260.392 392.286, 263.633 391.813, 266.240 391.540 C 276.947 390.418, 280.545 387.877, 288.977 375.479 C 301.500 357.066, 309.986 334.225, 313.490 309.500 C 314.483 302.494, 315.317 275, 314.537 275 C 314.124 275, 309.672 275.684, 304.643 276.520 C 285.603 279.685, 283.194 279.992, 271.500 280.736 C 245.942 282.363, 189.359 281.297, 180 279.012 C 176.703 278.207, 168.703 276.833, 159.375 275.469 C 155.619 274.920, 155.196 275.082, 154.645 277.278 M 343.500 279.197 C 340.750 279.640, 337.719 280.452, 336.764 281.002 C 335.809 281.551, 334.376 282, 333.580 282 C 332.784 282, 329.853 283.417, 327.066 285.149 C 322.179 288.188, 322 288.460, 322 292.859 L 322 297.419 328.198 291.202 C 334.986 284.393, 338.188 283.001, 347 283.028 C 356.685 283.056, 365.169 288.921, 368.019 297.559 C 370.002 303.566, 368.771 312.909, 365.168 319.207 C 359.405 329.279, 345.088 341.224, 330.541 348.096 C 324.553 350.925, 314.255 354, 310.768 354 C 308.864 354, 306.177 358.510, 307.370 359.703 C 308.322 360.655, 316.402 358.408, 322.701 355.439 C 325.562 354.091, 329.122 352.524, 330.612 351.957 C 336.324 349.786, 351.757 339.938, 357.423 334.850 C 365.621 327.488, 370.513 319.578, 372.562 310.366 C 373.981 303.989, 374.038 302.189, 372.946 298.191 C 369.407 285.236, 356.735 277.062, 343.500 279.197 M 337.112 286.892 C 331.106 289.328, 322 298.095, 322 301.441 C 322 304.938, 323.638 304.653, 325.975 300.750 C 331.551 291.435, 337.045 288, 346.368 288 C 360.982 288, 368.127 301.182, 361.384 315.704 C 357.417 324.249, 341.947 337.598, 328.954 343.688 C 326.453 344.860, 321.166 346.803, 317.204 348.007 C 310.039 350.183, 307.841 352, 312.374 352 C 320.669 352, 343.126 339.620, 354.168 328.960 C 364.485 318.999, 368.085 310.718, 366.548 300.474 C 365.629 294.346, 358.287 286.638, 352.450 285.674 C 346.163 284.636, 341.823 284.981, 337.112 286.892 M 340.554 290.669 C 336.309 291.876, 330.979 296.179, 328.510 300.392 C 327.080 302.832, 324.867 305.512, 323.593 306.347 C 321.885 307.466, 321.067 309.264, 320.483 313.183 C 320.047 316.107, 319.729 318.745, 319.776 319.044 C 319.824 319.342, 318.739 324.067, 317.365 329.544 C 313.498 344.966, 313.496 344.983, 315.637 345.115 C 319.719 345.367, 321.852 344.651, 330.523 340.112 C 340.389 334.949, 351.011 327.031, 355.125 321.774 C 363.660 310.868, 364.242 300.218, 356.689 293.164 C 354.796 291.396, 352.766 290.741, 348.344 290.471 C 345.130 290.275, 341.624 290.364, 340.554 290.669 M 187.989 397.250 C 183.590 404.465, 185.905 406.742, 200 409.064 C 212.882 411.186, 260.730 410.920, 271.952 408.664 C 280.376 406.971, 285 404.920, 285 402.878 C 285 401.466, 281.967 395.098, 281.015 394.509 C 280.607 394.257, 277.174 394.681, 273.386 395.452 C 259.149 398.349, 237.127 399.399, 219 398.046 C 201.140 396.712, 196.540 396.156, 193.357 394.946 C 190.008 393.672, 190.228 393.578, 187.989 397.250 M 275 397.037 C 262.395 399.801, 255.729 400.329, 233.500 400.319 C 219.374 400.313, 207.854 399.861, 205.500 399.221 C 203.300 398.623, 199.001 397.838, 195.946 397.476 L 190.391 396.818 189.273 400.463 C 188.247 403.807, 188.334 404.175, 190.327 404.912 C 197.394 407.528, 210.765 408.493, 238 408.353 C 262.276 408.228, 267.612 407.927, 274 406.320 C 282.230 404.251, 283.793 402.261, 280.297 398.304 C 278.826 396.639, 277.865 396.409, 275 397.037" stroke="none" fill="#fbf791" fill-rule="evenodd"/><path d="M 256.239 72.750 C 255.208 75.083, 254.580 79.160, 254.579 83.539 C 254.577 91.163, 256.149 95.122, 266.566 113.747 C 273.502 126.146, 275.369 135.917, 272.568 145.148 C 270.788 151.013, 269.128 154.211, 262.955 163.667 C 252.381 179.864, 252.436 191.102, 263.149 203.590 C 268.703 210.064, 271.944 216.102, 271.978 220.039 C 271.990 221.435, 271.100 224.342, 270 226.500 C 267.697 231.018, 267.701 231, 268.918 231 C 270.317 231, 274.129 224.342, 275.107 220.189 C 276.559 214.026, 275.148 208.652, 269.892 200.329 C 265.777 193.812, 265 191.813, 265 187.741 C 265 182.170, 266.261 179.422, 273.664 168.855 C 282.999 155.530, 285.742 146.394, 283.902 134.760 C 282.608 126.578, 278.603 118.139, 269.953 105.362 C 260.051 90.736, 258.661 87.283, 258.637 77.250 C 258.626 72.713, 258.456 69, 258.258 69 C 258.060 69, 257.152 70.688, 256.239 72.750 M 201.500 126 C 201.840 126.550, 202.771 127, 203.570 127 C 206.374 127, 213.823 131.156, 217.362 134.696 C 225.907 143.240, 226.087 152.885, 218.019 169.704 C 207.930 190.734, 210.284 199.384, 230.090 214.067 C 240.614 221.869, 243.240 229.135, 238.750 238.038 C 236.893 241.721, 235.320 243.111, 229.744 246 C 225.912 247.985, 223.182 250.012, 223.437 250.683 C 224.015 252.207, 220.961 252.759, 208 253.477 C 188.971 254.530, 170.659 256.667, 163.735 258.641 C 162.765 258.918, 162.271 259.630, 162.638 260.224 C 163.005 260.818, 162.449 261.971, 161.403 262.786 C 159.693 264.119, 159.682 264.206, 161.297 263.648 C 166.656 261.795, 199.126 257.988, 209.192 258.032 C 215.331 258.059, 216.232 258.268, 214.822 259.339 C 213.776 260.134, 213.450 261.111, 213.957 261.931 C 214.615 262.994, 215.549 262.903, 218.838 261.451 C 221.075 260.464, 222.711 259.341, 222.473 258.956 C 221.676 257.667, 230.615 257.267, 250.638 257.697 C 273.235 258.182, 299.124 260.952, 308.993 263.942 C 313.777 265.391, 314.995 265.212, 312 263.500 C 310.625 262.714, 308.539 262.055, 307.365 262.035 C 306.191 262.016, 304.529 260.931, 303.673 259.624 C 302.392 257.669, 300.730 257.046, 294.308 256.117 C 285.305 254.815, 246.080 252.043, 235 251.927 C 228.181 251.855, 227.773 251.741, 230.500 250.674 C 232.150 250.028, 233.602 248.970, 233.726 248.321 C 233.851 247.673, 236.124 244.972, 238.777 242.318 C 249.423 231.672, 247.804 219.620, 233.965 206.500 C 231.645 204.300, 228.453 200.499, 226.873 198.054 C 224.431 194.275, 224 192.595, 224 186.851 C 224 183.135, 224.513 178.835, 225.141 177.297 C 225.768 175.759, 226.856 173.150, 227.558 171.500 C 232.040 160.975, 232.500 159.159, 232.500 152 C 232.500 145.620, 232.090 143.802, 229.751 139.824 C 226.266 133.895, 220.953 129.503, 214.212 126.980 C 208.637 124.892, 200.424 124.259, 201.500 126 M 191.807 176.456 C 187.606 182.396, 186.172 186.319, 186.076 192.128 C 185.965 198.870, 188.356 203.541, 195.971 211.462 C 199.693 215.333, 203.247 219.483, 203.869 220.684 C 205.806 224.426, 205.152 230.218, 202.081 236.515 C 198.558 243.739, 197.361 248, 198.856 248 C 199.447 248, 200.399 247.124, 200.972 246.053 C 201.545 244.982, 203.796 242.046, 205.975 239.529 C 214.704 229.443, 213.269 218.792, 201.800 208.536 C 193.364 200.992, 191 196.836, 191 189.546 C 191 184.915, 191.647 182.095, 193.615 178.145 C 195.053 175.258, 195.979 172.646, 195.672 172.339 C 195.365 172.032, 193.626 173.884, 191.807 176.456 M 255.250 250.689 C 256.212 250.941, 257.788 250.941, 258.750 250.689 C 259.712 250.438, 258.925 250.232, 257 250.232 C 255.075 250.232, 254.287 250.438, 255.250 250.689 M 231.750 259.706 C 232.988 259.944, 235.012 259.944, 236.250 259.706 C 237.488 259.467, 236.475 259.272, 234 259.272 C 231.525 259.272, 230.512 259.467, 231.750 259.706 M 154.293 261.567 C 148.908 263.924, 148.630 265.357, 149.330 287.062 C 149.973 307.003, 150.291 309.417, 154.719 328 C 160.039 350.332, 170.437 371.645, 183.398 386.786 C 188.273 392.482, 188.289 392.674, 184.471 400.057 C 183.585 401.770, 183.181 403.996, 183.548 405.150 C 185.329 410.763, 205.264 414.063, 236.620 413.934 C 263.745 413.823, 280.869 411.351, 285.656 406.853 C 288.566 404.120, 288.562 403.909, 285.500 397.813 C 282.431 391.703, 282.431 391.744, 285.484 388.302 C 289.096 384.229, 289.468 383.750, 291.557 380.474 C 292.600 378.838, 293.693 377.275, 293.986 377 C 297.266 373.920, 308.180 353.178, 310.824 345 C 317.380 324.721, 319.923 309.457, 320.688 285.797 C 321.219 269.354, 321.091 266.787, 319.623 264.547 C 317.507 261.318, 316 261.289, 316 264.477 C 316 270.717, 304.108 273.390, 265 275.939 C 247.528 277.078, 207.107 276.552, 190.500 274.969 C 174.667 273.460, 157.848 270.148, 154.962 267.971 L 152.509 266.121 155.442 263.061 C 157.055 261.377, 158.177 260.037, 157.937 260.082 C 157.697 260.126, 156.057 260.795, 154.293 261.567 M 262.750 260.706 C 263.988 260.944, 266.012 260.944, 267.250 260.706 C 268.488 260.467, 267.475 260.272, 265 260.272 C 262.525 260.272, 261.512 260.467, 262.750 260.706 M 168.500 265.981 C 166.850 266.408, 164.421 267.184, 163.102 267.705 C 156.230 270.423, 192.833 275.129, 218.500 274.828 C 229.150 274.703, 231.064 274.505, 226.500 274 L 220.500 273.336 226.750 273.168 C 231.564 273.039, 233 272.655, 233 271.500 C 233 270.675, 232.818 270, 232.595 270 C 232.090 270, 208.403 267.345, 197 266.010 C 187.209 264.864, 172.873 264.849, 168.500 265.981 M 152.769 272.565 C 151.733 273.600, 152.854 296.743, 154.564 309.651 C 155.917 319.859, 160.221 337.523, 163.082 344.610 C 163.724 346.200, 164.570 348.400, 164.963 349.500 C 168.650 359.826, 184.453 384.874, 190.596 390.128 C 193.248 392.396, 196.810 392.945, 218.500 394.427 C 234.239 395.502, 240.332 395.494, 254 394.382 C 275.119 392.664, 276.919 392.305, 280.346 389.134 C 287.010 382.966, 296.632 368.445, 302.433 355.800 C 306.198 347.592, 311.478 332.298, 312.375 327 C 312.700 325.075, 313.644 319.900, 314.471 315.500 C 315.299 311.100, 316.279 299.451, 316.651 289.613 L 317.326 271.725 314.413 272.302 C 307.545 273.662, 305.386 274.200, 303.500 275.023 C 302.400 275.503, 299.250 276.125, 296.500 276.407 C 293.750 276.688, 286.100 277.487, 279.500 278.182 C 263.652 279.852, 204.002 279.884, 190 278.229 C 173.915 276.329, 166.229 275.030, 155.988 272.483 C 154.606 272.139, 153.158 272.176, 152.769 272.565 M 342.500 274.480 C 331.579 278.001, 330.970 278.092, 328.742 276.532 C 325.368 274.169, 323 274.568, 323 277.500 C 323 279.308, 323.537 280, 324.941 280 C 326.009 280, 327.160 279.550, 327.500 279 C 327.840 278.450, 328.616 278, 329.226 278 C 329.835 278, 328.571 279.572, 326.417 281.494 C 322.470 285.014, 323.997 285.328, 329 282.024 C 335.679 277.613, 352.438 275.872, 358.599 278.949 C 366.876 283.084, 373.068 290.300, 374.517 297.500 C 374.959 299.700, 375.466 302.175, 375.642 303 C 376.268 305.927, 373.653 315.583, 370.689 321.288 C 362.931 336.216, 346.203 348.177, 318.500 358.603 C 313.550 360.466, 308.768 361.992, 307.872 361.995 C 305.804 362.001, 303.537 364.596, 304.877 365.424 C 305.412 365.755, 306.896 365.617, 308.175 365.117 C 309.454 364.617, 312.525 363.638, 315 362.941 C 317.475 362.244, 321.525 360.698, 324 359.504 C 326.475 358.310, 328.858 357.301, 329.296 357.262 C 331.130 357.095, 342.028 351.277, 349 346.741 C 361.096 338.872, 372.073 327.492, 374.907 319.884 C 375.600 318.023, 376.614 315.663, 377.160 314.640 C 377.707 313.617, 378.166 309.079, 378.181 304.555 C 378.203 298.033, 377.751 295.415, 376.001 291.915 C 373.395 286.704, 365.255 278, 362.988 278 C 362.114 278, 360.972 277.611, 360.450 277.136 C 358.243 275.129, 346.073 273.328, 342.500 274.480 M 326.750 285.231 C 322.228 288.141, 322 288.506, 322 292.837 L 322 297.385 327.940 291.477 C 337.180 282.285, 336.541 278.930, 326.750 285.231 M 337.112 286.892 C 331.106 289.328, 322 298.095, 322 301.441 C 322 304.938, 323.638 304.653, 325.975 300.750 C 331.551 291.435, 337.045 288, 346.368 288 C 360.982 288, 368.127 301.182, 361.384 315.704 C 357.417 324.249, 341.947 337.598, 328.954 343.688 C 326.453 344.860, 321.166 346.803, 317.204 348.007 C 310.039 350.183, 307.841 352, 312.374 352 C 320.669 352, 343.126 339.620, 354.168 328.960 C 364.485 318.999, 368.085 310.718, 366.548 300.474 C 365.629 294.346, 358.287 286.638, 352.450 285.674 C 346.163 284.636, 341.823 284.981, 337.112 286.892 M 286.775 290.559 C 281.718 293.303, 280.515 298.843, 284.012 303.288 C 288.101 308.487, 295.794 307.597, 298.656 301.594 C 300.059 298.654, 300.111 297.682, 299.010 295.025 C 297.773 292.038, 293.544 288.956, 290.800 289.040 C 290.085 289.062, 288.274 289.746, 286.775 290.559 M 165.390 294.427 C 165.070 295.259, 165.291 300.341, 165.881 305.720 C 169.189 335.916, 182.535 363.816, 200.787 378.691 C 203.696 381.061, 206.747 383, 207.569 383 C 210.874 383, 210.046 379.892, 205.246 374.281 C 195.058 362.371, 190.223 353.211, 184.510 335 C 180.859 323.361, 179.611 317.684, 177.864 304.766 L 176.683 296.031 173.091 295.384 C 171.116 295.028, 168.706 294.327, 167.735 293.825 C 166.466 293.170, 165.807 293.338, 165.390 294.427 M 373.232 303 C 373.232 304.925, 373.438 305.712, 373.689 304.750 C 373.941 303.788, 373.941 302.212, 373.689 301.250 C 373.438 300.288, 373.232 301.075, 373.232 303 M 290.408 320.500 C 288.891 322.816, 288.891 323.184, 290.408 325.500 C 293.361 330.006, 299 328.257, 299 322.835 C 299 317.928, 293.137 316.335, 290.408 320.500 M 365.437 336.250 L 362.500 339.500 365.750 336.563 C 368.779 333.825, 369.460 333, 368.687 333 C 368.515 333, 367.052 334.462, 365.437 336.250 M 314.100 353.365 C 310.097 354.210, 308.439 355.089, 307.693 356.762 C 307.139 358.003, 306.996 359.329, 307.375 359.708 C 308.148 360.481, 315.251 358.758, 320.730 356.468 C 324.158 355.036, 324.239 354.893, 322.416 353.513 C 321.362 352.716, 320.275 352.100, 320 352.144 C 319.725 352.188, 317.070 352.738, 314.100 353.365 M 187.989 397.250 C 183.590 404.465, 185.905 406.742, 200 409.064 C 212.882 411.186, 260.730 410.920, 271.952 408.664 C 280.376 406.971, 285 404.920, 285 402.878 C 285 401.466, 281.967 395.098, 281.015 394.509 C 280.607 394.257, 277.174 394.681, 273.386 395.452 C 259.149 398.349, 237.127 399.399, 219 398.046 C 201.140 396.712, 196.540 396.156, 193.357 394.946 C 190.008 393.672, 190.228 393.578, 187.989 397.250 M 243.750 400.706 C 244.988 400.944, 247.012 400.944, 248.250 400.706 C 249.488 400.467, 248.475 400.272, 246 400.272 C 243.525 400.272, 242.512 400.467, 243.750 400.706 M 256.750 415.706 C 257.988 415.944, 260.012 415.944, 261.250 415.706 C 262.488 415.467, 261.475 415.272, 259 415.272 C 256.525 415.272, 255.512 415.467, 256.750 415.706" stroke="none" fill="#f9d925" fill-rule="evenodd"/></svg>