<?xml version="1.0" encoding="UTF-8" standalone="no"?>
<svg
   width="233.548"
   height="346.991"
   viewBox="0 0 233.548 346.99099"
   version="1.1"
   id="svg2"
   sodipodi:docname="caffeine-on.svg"
   inkscape:version="1.4.3 (0d15f75042, 2025-12-25)"
   xmlns:inkscape="http://www.inkscape.org/namespaces/inkscape"
   xmlns:sodipodi="http://sodipodi.sourceforge.net/DTD/sodipodi-0.dtd"
   xmlns="http://www.w3.org/2000/svg"
   xmlns:svg="http://www.w3.org/2000/svg">
  <defs
     id="defs2" />
  <sodipodi:namedview
     id="namedview2"
     pagecolor="#ffffff"
     bordercolor="#000000"
     borderopacity="0.25"
     inkscape:showpageshadow="2"
     inkscape:pageopacity="0.0"
     inkscape:pagecheckerboard="0"
     inkscape:deskcolor="#d1d1d1"
     inkscape:zoom="2.414"
     inkscape:cx="102.73405"
     inkscape:cy="180.82022"
     inkscape:window-width="1272"
     inkscape:window-height="1408"
     inkscape:window-x="0"
     inkscape:window-y="0"
     inkscape:window-maximized="0"
     inkscape:current-layer="svg2" />
  <path
     d="m 56,182.054 c -4.125,0.43 -10.875,1.068 -15,1.418 -18.764,1.592 -32.297,5.076 -37.845,9.744 L 0,195.871 v 17.015 c 0,9.359 0.41,19.175 0.911,21.815 0.502,2.639 1.446,8.174 2.1,12.299 1.86,11.74 5.103,23.667 8.606,31.651 0.761,1.733 1.383,3.697 1.383,4.365 0,1.313 4.377,9.934 7.099,13.984 0.925,1.375 1.637,2.725 1.584,3 -0.171,0.879 8.531,13.345 12.479,17.876 4.045,4.643 4.261,6.937 1.111,11.803 -0.776,1.199 -1.267,3.674 -1.092,5.5 0.279,2.907 0.979,3.643 5.617,5.904 2.914,1.421 5.839,2.595 6.5,2.608 0.661,0.013 4.802,0.709 9.202,1.546 4.4,0.838 9.125,1.524 10.5,1.526 1.375,0.002 10.15,0.092 19.5,0.2 33.28,0.387 53.73,-3.275 56.569,-10.13 1.083,-2.614 0.964,-3.586 -0.912,-7.446 -2.195,-4.518 -2.76,-7.952 -1.407,-8.554 1.02,-0.453 5.879,-6.937 11.279,-15.051 3.65,-5.484 4.965,-6.724 7.162,-6.75 1.48,-0.018 2.969,-0.482 3.309,-1.032 0.34,-0.55 1.626,-1 2.859,-1 1.233,0 2.669,-0.379 3.191,-0.843 0.522,-0.464 3.65,-1.645 6.95,-2.624 7.56,-2.243 22.059,-9.38 29.953,-14.743 6.565,-4.46 18.939,-15.966 20.855,-19.391 7.623,-13.626 9.178,-19.422 7.778,-28.998 -1.598,-10.931 -7.57,-19.021 -17.719,-24.002 -6.715,-3.296 -14.097,-3.976 -23.001,-2.119 -10.831,2.257 -16.366,0.437 -16.366,-5.383 0,-5.815 -5.891,-9.556 -19.461,-12.358 -17.892,-3.694 -68.223,-6.915 -73.539,-4.705 -2.055,0.854 -1.164,1.051 5,1.105 10.946,0.097 50.222,2.864 59.308,4.178 6.422,0.929 8.084,1.552 9.365,3.507 0.856,1.307 2.518,2.392 3.692,2.411 1.174,0.02 3.26,0.679 4.635,1.465 2.995,1.712 1.777,1.891 -3.007,0.442 -9.889,-2.996 -35.743,-5.755 -58.493,-6.242 -16.576,-0.355 -30.653,0.279 -28.5,1.283 0.275,0.128 8.6,0.382 18.5,0.565 21.229,0.391 31.574,1.031 48.444,2.993 12.802,1.489 14.543,1.82 19.389,3.682 l 2.832,1.088 -2.879,1.211 c -1.583,0.666 -6.908,1.739 -11.832,2.386 -4.925,0.647 -11.879,1.588 -15.454,2.091 -3.575,0.503 -22.025,1.184 -41,1.512 -26.989,0.466 -38.112,0.262 -51.093,-0.941 C 26.287,203.122 12,200.034 12,198.107 c 0,-1.674 24.657,-5.239 46.265,-6.691 11.47,-0.771 14.014,-2.416 3.736,-2.416 -10.03,0 -42.48,3.842 -47.704,5.648 -1.615,0.558 -1.604,0.471 0.106,-0.862 1.046,-0.815 1.602,-1.968 1.235,-2.562 -0.367,-0.594 0.127,-1.306 1.097,-1.583 6.924,-1.974 25.236,-4.111 44.265,-5.164 12.445,-0.689 16.219,-1.314 15.45,-2.558 -0.654,-1.058 -9.584,-0.999 -20.45,0.135 M 7.293,192.567 c -5.385,2.357 -5.663,3.79 -4.963,25.495 0.643,19.941 0.961,22.355 5.389,40.938 5.32,22.332 15.718,43.645 28.679,58.786 4.875,5.696 4.891,5.888 1.073,13.271 -0.886,1.713 -1.29,3.939 -0.923,5.093 1.781,5.613 21.716,8.913 53.072,8.784 27.125,-0.111 44.249,-2.583 49.036,-7.081 2.91,-2.733 2.906,-2.944 -0.156,-9.04 -3.069,-6.11 -3.069,-6.069 -0.016,-9.511 3.612,-4.073 3.984,-4.552 6.073,-7.828 1.043,-1.636 2.136,-3.199 2.429,-3.474 3.28,-3.08 14.194,-23.822 16.838,-32 6.556,-20.279 9.099,-35.543 9.864,-59.203 0.531,-16.443 0.403,-19.01 -1.065,-21.25 -2.116,-3.229 -3.623,-3.258 -3.623,-0.07 0,6.24 -11.892,8.913 -51,11.462 -17.472,1.139 -57.893,0.613 -74.5,-0.97 -15.833,-1.509 -32.652,-4.821 -35.538,-6.998 l -2.453,-1.85 2.933,-3.06 c 1.613,-1.684 2.735,-3.024 2.495,-2.979 -0.24,0.044 -1.88,0.713 -3.644,1.485 m -1.524,10.998 c -1.036,1.035 0.085,24.178 1.795,37.086 1.353,10.208 5.657,27.872 8.518,34.959 0.642,1.59 1.488,3.79 1.881,4.89 3.687,10.326 19.49,35.374 25.633,40.628 2.652,2.268 6.214,2.817 27.904,4.299 15.739,1.075 21.832,1.067 35.5,-0.045 21.119,-1.718 22.919,-2.077 26.346,-5.248 6.664,-6.168 16.286,-20.689 22.087,-33.334 3.765,-8.208 9.045,-23.502 9.942,-28.8 0.325,-1.925 1.269,-7.1 2.096,-11.5 0.828,-4.4 1.808,-16.049 2.18,-25.887 l 0.675,-17.888 -2.913,0.577 c -6.868,1.36 -9.027,1.898 -10.913,2.721 -1.1,0.48 -4.25,1.102 -7,1.384 -2.75,0.281 -10.4,1.08 -17,1.775 -15.848,1.67 -75.498,1.702 -89.5,0.047 -16.085,-1.9 -23.771,-3.199 -34.012,-5.746 -1.382,-0.344 -2.83,-0.307 -3.219,0.082 M 195.5,205.48 c -10.921,3.521 -11.53,3.612 -13.758,2.052 -3.374,-2.363 -5.742,-1.964 -5.742,0.968 0,1.808 0.537,2.5 1.941,2.5 1.068,0 2.219,-0.45 2.559,-1 0.34,-0.55 1.116,-1 1.726,-1 0.609,0 -0.655,1.572 -2.809,3.494 -3.947,3.52 -2.42,3.834 2.583,0.53 6.679,-4.411 23.438,-6.152 29.599,-3.075 8.277,4.135 14.469,11.351 15.918,18.551 0.442,2.2 0.949,4.675 1.125,5.5 0.626,2.927 -1.989,12.583 -4.953,18.288 -7.758,14.928 -24.486,26.889 -52.189,37.315 -4.95,1.863 -9.732,3.389 -10.628,3.392 -2.068,0.006 -4.335,2.601 -2.995,3.429 0.535,0.331 2.019,0.193 3.298,-0.307 1.279,-0.5 4.35,-1.479 6.825,-2.176 2.475,-0.697 6.525,-2.243 9,-3.437 2.475,-1.194 4.858,-2.203 5.296,-2.242 1.834,-0.167 12.732,-5.985 19.704,-10.521 12.096,-7.869 23.073,-19.249 25.907,-26.857 0.693,-1.861 1.707,-4.221 2.253,-5.244 0.547,-1.023 1.006,-5.561 1.021,-10.085 0.022,-6.522 -0.43,-9.14 -2.18,-12.64 C 226.395,217.704 218.255,209 215.988,209 c -0.874,0 -2.016,-0.389 -2.538,-0.864 -2.207,-2.007 -14.377,-3.808 -17.95,-2.656 M 7.645,208.278 c -0.333,1.326 -0.413,5.069 -0.178,8.317 1.422,19.648 1.83,23.719 3.149,31.405 0.803,4.675 1.895,9.85 2.428,11.5 0.533,1.65 2.157,6.825 3.61,11.5 5.179,16.664 14.574,33.64 24.701,44.634 4.719,5.123 6.028,5.703 15.645,6.93 1.375,0.175 4.328,0.585 6.563,0.911 5.185,0.755 45.208,0.851 48.474,0.116 1.355,-0.305 4.596,-0.778 7.203,-1.051 10.707,-1.122 14.305,-3.663 22.737,-16.061 12.523,-18.413 21.009,-41.254 24.513,-65.979 0.993,-7.006 1.827,-34.5 1.047,-34.5 -0.413,0 -4.865,0.684 -9.894,1.52 -19.04,3.165 -21.449,3.472 -33.143,4.216 -25.558,1.627 -82.141,0.561 -91.5,-1.724 -3.297,-0.805 -11.297,-2.179 -20.625,-3.543 -3.756,-0.549 -4.179,-0.387 -4.73,1.809 m 188.855,1.919 c -2.75,0.443 -5.781,1.255 -6.736,1.805 -0.955,0.549 -2.388,0.998 -3.184,0.998 -0.796,0 -3.727,1.417 -6.514,3.149 -4.887,3.039 -5.066,3.311 -5.066,7.71 v 4.56 l 6.198,-6.217 c 6.788,-6.809 9.99,-8.201 18.802,-8.174 9.685,0.028 18.169,5.893 21.019,14.531 1.983,6.007 0.752,15.35 -2.851,21.648 -5.763,10.072 -20.08,22.017 -34.627,28.889 -5.988,2.829 -16.286,5.904 -19.773,5.904 -1.904,0 -4.591,4.51 -3.398,5.703 0.952,0.952 9.032,-1.295 15.331,-4.264 2.861,-1.348 6.421,-2.915 7.911,-3.482 5.712,-2.171 21.145,-12.019 26.811,-17.107 8.198,-7.362 13.09,-15.272 15.139,-24.484 1.419,-6.377 1.476,-8.177 0.384,-12.175 -3.539,-12.955 -16.211,-21.129 -29.446,-18.994 m -6.388,7.695 C 184.106,220.328 175,229.095 175,232.441 c 0,3.497 1.638,3.212 3.975,-0.691 5.576,-9.315 11.07,-12.75 20.393,-12.75 14.614,0 21.759,13.182 15.016,27.704 -3.967,8.545 -19.437,21.894 -32.43,27.984 -2.501,1.172 -7.788,3.115 -11.75,4.319 -7.165,2.176 -9.363,3.993 -4.83,3.993 8.295,0 30.752,-12.38 41.794,-23.04 10.317,-9.961 13.917,-18.242 12.38,-28.486 -0.919,-6.128 -8.261,-13.836 -14.098,-14.8 -6.287,-1.038 -10.627,-0.693 -15.338,1.218 m 3.442,3.777 c -4.245,1.207 -9.575,5.51 -12.044,9.723 -1.43,2.44 -3.643,5.12 -4.917,5.955 -1.708,1.119 -2.526,2.917 -3.11,6.836 -0.436,2.924 -0.754,5.562 -0.707,5.861 0.048,0.298 -1.037,5.023 -2.411,10.5 -3.867,15.422 -3.869,15.439 -1.728,15.571 4.082,0.252 6.215,-0.464 14.886,-5.003 9.866,-5.163 20.488,-13.081 24.602,-18.338 8.535,-10.906 9.117,-21.556 1.564,-28.61 -1.893,-1.768 -3.923,-2.423 -8.345,-2.693 -3.214,-0.196 -6.72,-0.107 -7.79,0.198 M 40.989,328.25 c -4.399,7.215 -2.084,9.492 12.011,11.814 12.882,2.122 60.73,1.856 71.952,-0.4 8.424,-1.693 13.048,-3.744 13.048,-5.786 0,-1.412 -3.033,-7.78 -3.985,-8.369 -0.408,-0.252 -3.841,0.172 -7.629,0.943 -14.237,2.897 -36.259,3.947 -54.386,2.594 -17.86,-1.334 -22.46,-1.89 -25.643,-3.1 -3.349,-1.274 -3.129,-1.368 -5.368,2.304 M 128,328.037 c -12.605,2.764 -19.271,3.292 -41.5,3.282 -14.126,-0.006 -25.646,-0.458 -28,-1.098 -2.2,-0.598 -6.499,-1.383 -9.554,-1.745 l -5.555,-0.658 -1.118,3.645 c -1.026,3.344 -0.939,3.712 1.054,4.449 7.067,2.616 20.438,3.581 47.673,3.441 24.276,-0.125 29.612,-0.426 36,-2.033 8.23,-2.069 9.793,-4.059 6.297,-8.016 -1.471,-1.665 -2.432,-1.895 -5.297,-1.267"
     stroke="none"
     fill="#fbf791"
     fill-rule="evenodd"
     id="path1" />
  <path
     d="m 109.239,3.75 c -1.031,2.333 -1.659,6.41 -1.66,10.789 -0.002,7.624 1.57,11.583 11.987,30.208 6.936,12.399 8.803,22.17 6.002,31.401 -1.78,5.865 -3.44,9.063 -9.613,18.519 -10.574,16.197 -10.519,27.435 0.194,39.923 5.554,6.474 8.795,12.512 8.829,16.449 0.012,1.396 -0.878,4.303 -1.978,6.461 -2.303,4.518 -2.299,4.5 -1.082,4.5 1.399,0 5.211,-6.658 6.189,-10.811 1.452,-6.163 0.041,-11.537 -5.215,-19.86 -4.115,-6.517 -4.892,-8.516 -4.892,-12.588 0,-5.571 1.261,-8.319 8.664,-18.886 C 135.999,86.53 138.742,77.394 136.902,65.76 135.608,57.578 131.603,49.139 122.953,36.362 113.051,21.736 111.661,18.283 111.637,8.25 111.626,3.713 111.456,0 111.258,0 111.06,0 110.152,1.688 109.239,3.75 M 54.5,57 c 0.34,0.55 1.271,1 2.07,1 2.804,0 10.253,4.156 13.792,7.696 8.545,8.544 8.725,18.189 0.657,35.008 -10.089,21.03 -7.735,29.68 12.071,44.363 10.524,7.802 13.15,15.068 8.66,23.971 -1.857,3.683 -3.43,5.073 -9.006,7.962 -3.832,1.985 -6.562,4.012 -6.307,4.683 0.578,1.524 -2.476,2.076 -15.437,2.794 -19.029,1.053 -37.341,3.19 -44.265,5.164 -0.97,0.277 -1.464,0.989 -1.097,1.583 0.367,0.594 -0.189,1.747 -1.235,2.562 -1.71,1.333 -1.721,1.42 -0.106,0.862 5.359,-1.853 37.829,-5.66 47.895,-5.616 6.139,0.027 7.04,0.236 5.63,1.307 -1.046,0.795 -1.372,1.772 -0.865,2.592 0.658,1.063 1.592,0.972 4.881,-0.48 2.237,-0.987 3.873,-2.11 3.635,-2.495 -0.797,-1.289 8.142,-1.689 28.165,-1.259 22.597,0.485 48.486,3.255 58.355,6.245 4.784,1.449 6.002,1.27 3.007,-0.442 -1.375,-0.786 -3.461,-1.445 -4.635,-1.465 -1.174,-0.019 -2.836,-1.104 -3.692,-2.411 -1.281,-1.955 -2.943,-2.578 -9.365,-3.507 -9.003,-1.302 -48.228,-4.074 -59.308,-4.19 -6.819,-0.072 -7.227,-0.186 -4.5,-1.253 1.65,-0.646 3.102,-1.704 3.226,-2.353 0.125,-0.648 2.398,-3.349 5.051,-6.003 10.646,-10.646 9.027,-22.698 -4.812,-35.818 -2.32,-2.2 -5.512,-6.001 -7.092,-8.446 C 77.431,125.275 77,123.595 77,117.851 c 0,-3.716 0.513,-8.016 1.141,-9.554 0.627,-1.538 1.715,-4.147 2.417,-5.797 C 85.04,91.975 85.5,90.159 85.5,83 85.5,76.62 85.09,74.802 82.751,70.824 79.266,64.895 73.953,60.503 67.212,57.98 61.637,55.892 53.424,55.259 54.5,57 m -9.693,50.456 c -4.201,5.94 -5.635,9.863 -5.731,15.672 -0.111,6.742 2.28,11.413 9.895,19.334 3.722,3.871 7.276,8.021 7.898,9.222 1.937,3.742 1.283,9.534 -1.788,15.831 -3.523,7.224 -4.72,11.485 -3.225,11.485 0.591,0 1.543,-0.876 2.116,-1.947 0.573,-1.071 2.824,-4.007 5.003,-6.524 8.729,-10.086 7.294,-20.737 -4.175,-30.993 -8.436,-7.544 -10.8,-11.7 -10.8,-18.99 0,-4.631 0.647,-7.451 2.615,-11.401 1.438,-2.887 2.364,-5.499 2.057,-5.806 -0.307,-0.307 -2.046,1.545 -3.865,4.117 m 63.443,74.233 c 0.962,0.252 2.538,0.252 3.5,0 0.962,-0.251 0.175,-0.457 -1.75,-0.457 -1.925,0 -2.713,0.206 -1.75,0.457 m -23.5,9.017 c 1.238,0.238 3.262,0.238 4.5,0 1.238,-0.239 0.225,-0.434 -2.25,-0.434 -2.475,0 -3.488,0.195 -2.25,0.434 m -77.457,1.861 c -5.385,2.357 -5.663,3.79 -4.963,25.495 0.643,19.941 0.961,22.355 5.389,40.938 5.32,22.332 15.718,43.645 28.679,58.786 4.875,5.696 4.891,5.888 1.073,13.271 -0.886,1.713 -1.29,3.939 -0.923,5.093 1.781,5.613 21.716,8.913 53.072,8.784 27.125,-0.111 44.249,-2.583 49.036,-7.081 2.91,-2.733 2.906,-2.944 -0.156,-9.04 -3.069,-6.11 -3.069,-6.069 -0.016,-9.511 3.612,-4.073 3.984,-4.552 6.073,-7.828 1.043,-1.636 2.136,-3.199 2.429,-3.474 3.28,-3.08 14.194,-23.822 16.838,-32 6.556,-20.279 9.099,-35.543 9.864,-59.203 0.531,-16.443 0.403,-19.01 -1.065,-21.25 -2.116,-3.229 -3.623,-3.258 -3.623,-0.07 0,6.24 -11.892,8.913 -51,11.462 -17.472,1.139 -57.893,0.613 -74.5,-0.97 -15.833,-1.509 -32.652,-4.821 -35.538,-6.998 l -2.453,-1.85 2.933,-3.06 c 1.613,-1.684 2.735,-3.024 2.495,-2.979 -0.24,0.044 -1.88,0.713 -3.644,1.485 m 108.457,-0.861 c 1.238,0.238 3.262,0.238 4.5,0 1.238,-0.239 0.225,-0.434 -2.25,-0.434 -2.475,0 -3.488,0.195 -2.25,0.434 m -94.25,5.275 c -1.65,0.427 -4.079,1.203 -5.398,1.724 -6.872,2.718 29.731,7.424 55.398,7.123 10.65,-0.125 12.564,-0.323 8,-0.828 l -6,-0.664 6.25,-0.168 C 84.564,204.039 86,203.655 86,202.5 86,201.675 85.818,201 85.595,201 85.09,201 61.403,198.345 50,197.01 40.209,195.864 25.873,195.849 21.5,196.981 m -15.731,6.584 c -1.036,1.035 0.085,24.178 1.795,37.086 1.353,10.208 5.657,27.872 8.518,34.959 0.642,1.59 1.488,3.79 1.881,4.89 3.687,10.326 19.49,35.374 25.633,40.628 2.652,2.268 6.214,2.817 27.904,4.299 15.739,1.075 21.832,1.067 35.5,-0.045 21.119,-1.718 22.919,-2.077 26.346,-5.248 6.664,-6.168 16.286,-20.689 22.087,-33.334 3.765,-8.208 9.045,-23.502 9.942,-28.8 0.325,-1.925 1.269,-7.1 2.096,-11.5 0.828,-4.4 1.808,-16.049 2.18,-25.887 l 0.675,-17.888 -2.913,0.577 c -6.868,1.36 -9.027,1.898 -10.913,2.721 -1.1,0.48 -4.25,1.102 -7,1.384 -2.75,0.281 -10.4,1.08 -17,1.775 -15.848,1.67 -75.498,1.702 -89.5,0.047 -16.085,-1.9 -23.771,-3.199 -34.012,-5.746 -1.382,-0.344 -2.83,-0.307 -3.219,0.082 M 195.5,205.48 c -10.921,3.521 -11.53,3.612 -13.758,2.052 -3.374,-2.363 -5.742,-1.964 -5.742,0.968 0,1.808 0.537,2.5 1.941,2.5 1.068,0 2.219,-0.45 2.559,-1 0.34,-0.55 1.116,-1 1.726,-1 0.609,0 -0.655,1.572 -2.809,3.494 -3.947,3.52 -2.42,3.834 2.583,0.53 6.679,-4.411 23.438,-6.152 29.599,-3.075 8.277,4.135 14.469,11.351 15.918,18.551 0.442,2.2 0.949,4.675 1.125,5.5 0.626,2.927 -1.989,12.583 -4.953,18.288 -7.758,14.928 -24.486,26.889 -52.189,37.315 -4.95,1.863 -9.732,3.389 -10.628,3.392 -2.068,0.006 -4.335,2.601 -2.995,3.429 0.535,0.331 2.019,0.193 3.298,-0.307 1.279,-0.5 4.35,-1.479 6.825,-2.176 2.475,-0.697 6.525,-2.243 9,-3.437 2.475,-1.194 4.858,-2.203 5.296,-2.242 1.834,-0.167 12.732,-5.985 19.704,-10.521 12.096,-7.869 23.073,-19.249 25.907,-26.857 0.693,-1.861 1.707,-4.221 2.253,-5.244 0.547,-1.023 1.006,-5.561 1.021,-10.085 0.022,-6.522 -0.43,-9.14 -2.18,-12.64 C 226.395,217.704 218.255,209 215.988,209 c -0.874,0 -2.016,-0.389 -2.538,-0.864 -2.207,-2.007 -14.377,-3.808 -17.95,-2.656 m -15.75,10.751 c -4.522,2.91 -4.75,3.275 -4.75,7.606 v 4.548 l 5.94,-5.908 c 9.24,-9.192 8.601,-12.547 -1.19,-6.246 m 10.362,1.661 C 184.106,220.328 175,229.095 175,232.441 c 0,3.497 1.638,3.212 3.975,-0.691 5.576,-9.315 11.07,-12.75 20.393,-12.75 14.614,0 21.759,13.182 15.016,27.704 -3.967,8.545 -19.437,21.894 -32.43,27.984 -2.501,1.172 -7.788,3.115 -11.75,4.319 -7.165,2.176 -9.363,3.993 -4.83,3.993 8.295,0 30.752,-12.38 41.794,-23.04 10.317,-9.961 13.917,-18.242 12.38,-28.486 -0.919,-6.128 -8.261,-13.836 -14.098,-14.8 -6.287,-1.038 -10.627,-0.693 -15.338,1.218 m -50.337,3.667 c -5.057,2.744 -6.26,8.284 -2.763,12.729 4.089,5.199 11.782,4.309 14.644,-1.694 1.403,-2.94 1.455,-3.912 0.354,-6.569 -1.237,-2.987 -5.466,-6.069 -8.21,-5.985 -0.715,0.022 -2.526,0.706 -4.025,1.519 M 18.39,225.427 c -0.32,0.832 -0.099,5.914 0.491,11.293 3.308,30.196 16.654,58.096 34.906,72.971 2.909,2.37 5.96,4.309 6.782,4.309 3.305,0 2.477,-3.108 -2.323,-8.719 C 48.058,293.371 43.223,284.211 37.51,266 33.859,254.361 32.611,248.684 30.864,235.766 l -1.181,-8.735 -3.592,-0.647 c -1.975,-0.356 -4.385,-1.057 -5.356,-1.559 -1.269,-0.655 -1.928,-0.487 -2.345,0.602 M 226.232,234 c 0,1.925 0.206,2.712 0.457,1.75 0.252,-0.962 0.252,-2.538 0,-3.5 -0.251,-0.962 -0.457,-0.175 -0.457,1.75 m -82.824,17.5 c -1.517,2.316 -1.517,2.684 0,5 2.953,4.506 8.592,2.757 8.592,-2.665 0,-4.907 -5.863,-6.5 -8.592,-2.335 m 75.029,15.75 -2.937,3.25 3.25,-2.937 c 3.029,-2.738 3.71,-3.563 2.937,-3.563 -0.172,0 -1.635,1.462 -3.25,3.25 M 167.1,284.365 c -4.003,0.845 -5.661,1.724 -6.407,3.397 -0.554,1.241 -0.697,2.567 -0.318,2.946 0.773,0.773 7.876,-0.95 13.355,-3.24 3.428,-1.432 3.509,-1.575 1.686,-2.955 -1.054,-0.797 -2.141,-1.413 -2.416,-1.369 -0.275,0.044 -2.93,0.594 -5.9,1.221 M 40.989,328.25 c -4.399,7.215 -2.084,9.492 12.011,11.814 12.882,2.122 60.73,1.856 71.952,-0.4 8.424,-1.693 13.048,-3.744 13.048,-5.786 0,-1.412 -3.033,-7.78 -3.985,-8.369 -0.408,-0.252 -3.841,0.172 -7.629,0.943 -14.237,2.897 -36.259,3.947 -54.386,2.594 -17.86,-1.334 -22.46,-1.89 -25.643,-3.1 -3.349,-1.274 -3.129,-1.368 -5.368,2.304 m 55.761,3.456 c 1.238,0.238 3.262,0.238 4.5,0 1.238,-0.239 0.225,-0.434 -2.25,-0.434 -2.475,0 -3.488,0.195 -2.25,0.434 m 13,15 c 1.238,0.238 3.262,0.238 4.5,0 1.238,-0.239 0.225,-0.434 -2.25,-0.434 -2.475,0 -3.488,0.195 -2.25,0.434"
     stroke="none"
     fill="#f9d925"
     fill-rule="evenodd"
     id="path2" />
</svg>
