<?xml version="1.0" encoding="UTF-8" standalone="no"?>
<svg
   width="250.76199"
   height="372.5665"
   viewBox="0 0 250.762 372.5665"
   version="1.1"
   id="svg2"
   sodipodi:docname="caffeine-off.svg"
   inkscape:version="1.4.3 (0d15f75042, 2025-12-25)"
   xmlns:inkscape="http://www.inkscape.org/namespaces/inkscape"
   xmlns:sodipodi="http://sodipodi.sourceforge.net/DTD/sodipodi-0.dtd"
   xmlns="http://www.w3.org/2000/svg"
   xmlns:svg="http://www.w3.org/2000/svg">
  <defs
     id="defs2" />
  <sodipodi:namedview
     id="namedview2"
     pagecolor="#ffffff"
     bordercolor="#000000"
     borderopacity="0.25"
     inkscape:showpageshadow="2"
     inkscape:pageopacity="0.0"
     inkscape:pagecheckerboard="0"
     inkscape:deskcolor="#d1d1d1"
     inkscape:zoom="3.4139115"
     inkscape:cx="33.246321"
     inkscape:cy="351.3565"
     inkscape:window-width="5120"
     inkscape:window-height="1416"
     inkscape:window-x="0"
     inkscape:window-y="0"
     inkscape:window-maximized="1"
     inkscape:current-layer="svg2" />
  <path
     d="m 80.433251,228.40309 c 9.213,0.165 24.286999,0.165 33.499999,0 9.212,-0.165 1.675,-0.3 -16.749999,-0.3 -18.425,0 -25.963,0.135 -16.75,0.3 m -61.25,15.46 c 0,9.526 3.772,29.83 7.763,41.792 5.542,16.607 15.004,32.819 25.58,43.827 5.954,6.197 7.113,6.653 9.121,3.587 1.623,-2.476 1.576,-2.661 -1.731,-6.73 -6.505,-8.005 -14.02,-21.461 -18.16,-32.515 -4.54,-12.124 -9.573,-37.734 -9.573,-48.714 0,-5.076 -0.073,-5.206 -3.25,-5.76 -1.787,-0.311 -4.713,-0.876 -6.5,-1.256 l -3.25,-0.689 v 6.458 m 135.472999,22.822 c -2.119,2.341 -1.238,6.469 1.786,8.366 2.344,1.472 7.122,-1.139 7.554,-4.128 0.82,-5.677 -5.46,-8.526 -9.34,-4.238 m -83.972999,90.132 c 6.329,0.839 50.016999,0.814 53.921999,-0.03 1.607,-0.348 -10.993,-0.632 -27.999999,-0.632 -17.007,0 -28.672,0.298 -25.922,0.662"
     stroke="none"
     fill="#7ea7c4"
     fill-rule="evenodd"
     id="path1" />
  <path
     d="m 56.683251,198.70909 c -28.408,2.126 -48.8989996,6.374 -54.2499996,11.246 -2.15100002,1.959 -2.25000003,2.74 -2.25000003,17.768 0,18.309 1.29700003,32.653 4.14500003,45.84 4.7550005,22.012 15.6639996,46.016 28.9759996,63.753 4.333,5.774 7.879,10.914 7.879,11.423 0,0.508 -0.9,2.602 -2,4.655 -4.776,8.911 -0.995,13.138 14.638,16.362 7.687,1.586 15.314,2.158 34.582,2.596 35.720999,0.812 56.305999,-1.39 63.121999,-6.752 3.259,-2.563 3.524,-7.442 0.737,-13.579 l -1.878,-4.135 6.336,-8.442 c 6.2,-8.261 6.462,-8.47 12.15,-9.708 12.502,-2.721 38.076,-15.308 51.427,-25.311 5.679,-4.255 15.338,-14.008 21.046,-21.251 3.513,-4.457 7.757,-14.302 8.939,-20.734 4.906,-26.705 -18.166,-47.73 -43.825,-39.937 -6.164,1.872 -7.468,1.969 -11.368,0.844 l -4.406,-1.272 -0.511,-5.46 c -0.28,-3.003 -0.874,-6.029 -1.318,-6.725 -2.094,-3.28 -17.559,-7.352 -37.171,-9.787 -15.38,-1.91 -76.188999,-2.802 -94.999999,-1.394 m -7.088,8.011 c -17.754,1.135 -37.412,4.816 -37.412,7.007 0,2.793 16.123,5.565 43.862,7.541 24.669,1.758 68.526999,1.456 90.137999,-0.62 13.182,-1.266 29.818,-4.411 31.328,-5.921 2.598,-2.598 -14.774,-6.452 -36.328,-8.06 -15.327,-1.143 -73.381999,-1.11 -91.587999,0.053 m 129.263999,14.017 c -17.451,5.64 -39.222,7.223 -91.175999,6.631 -44.833,-0.511 -54.505,-1.264 -73.182,-5.7 -4.6619991,-1.107 -8.5909996,-2.013 -8.7329996,-2.013 -0.609,0 0.488,25.413 1.511,35 1.8170005,17.029 9.1959996,42.83 16.1589996,56.5 7.477,14.68 22.658,35 27.245,36.469 10.002,3.204 51.692999,5.004 71.999999,3.109 20.641,-1.926 18.811,-1.046 28.294,-13.599 16.017,-21.202 27.565,-49.903 31.77,-78.962 1.395,-9.635 3.176,-39.623 2.341,-39.417 -0.223,0.055 -3.026,0.947 -6.229,1.982 m 31.824,5.96 c -6.461,1.279 -8.856,2.508 -15.25,7.83 -5.757,4.791 -6.068,5.28 -6.4,10.082 -0.193,2.776 -0.163,5.047 0.065,5.047 0.228,-0.001 3.236,-2.71 6.683,-6.02 7.515,-7.216 13.013,-9.929 20.184,-9.959 7.091,-0.03 11.002,1.789 15.959,7.421 8.225,9.344 8.005,20.609 -0.66,33.778 -6.158,9.361 -8.836,12.186 -18.581,19.608 -10.013,7.626 -21.544,14.225 -32.183,18.417 -5.783,2.279 -8.532,3.93 -9.28,5.571 -2.862,6.283 2.753,5.519 19.479,-2.65 22.627,-11.05 37.72,-23.182 47.32,-38.035 5.267,-8.149 7.257,-14.369 7.338,-22.938 0.056,-6.033 -0.377,-7.794 -3.234,-13.156 -1.815,-3.404 -5.038,-7.678 -7.162,-9.496 -5.471,-4.683 -16.165,-7.106 -24.278,-5.5 m -58.271,10.627 c -1.627,0.655 -4.229,5.66 -4.229,8.135 0,1.047 1.104,3.095 2.452,4.55 5.086,5.487 14.548,2.213 14.548,-5.034 0,-4.759 -3.395,-8.336 -7.823,-8.241 -2.022,0.043 -4.249,0.309 -4.948,0.59 m 56.013,2.825 c -5.167,2.246 -9.878,6.275 -15.059,12.878 -4.531,5.777 -4.932,6.788 -6.977,17.628 -1.193,6.325 -4.012,17.053 -6.264,23.841 -3.9,11.759 -4.349,14.966 -1.725,12.342 0.651,-0.651 2.161,-1.183 3.356,-1.183 10.41,0 41.416,-24.102 47.804,-37.16 5.925,-12.11 2.503,-24.911 -7.692,-28.773 -3.844,-1.457 -9.524,-1.276 -13.443,0.427 m -165.266999,115.071 c -0.536,1.411 -0.975,3.162 -0.975,3.892 0,4.444 23.696,7.778 55.5,7.807 25.517999,0.023 40.598999,-1.329 47.154999,-4.229 4.801,-2.124 5.053,-2.766 2.793,-7.136 -1.065,-2.059 -2.085,-2.837 -3.25,-2.48 -7.576,2.321 -19.322,3.077 -47.197999,3.038 -24.139,-0.033 -32.531,-0.398 -40.239,-1.75 -12.495,-2.19 -12.63,-2.182 -13.786,0.858"
     stroke="none"
     fill="#d9f0f7"
     fill-rule="evenodd"
     id="path2" />
</svg>
